<svg xmlns="http://www.w3.org/2000/svg" width="77" height="22" viewBox="0 0 77 22">
    <path fill="#454F5B" fill-rule="nonzero" d="M8.278 18.645c.756 0 1.664-.161 2.722-.484v3.135c-1.077.47-2.4.704-3.97.704-1.728 0-2.988-.426-3.777-1.277-.789-.852-1.183-2.129-1.183-3.832V9.448H0v-1.78l2.381-1.41L3.63 3h2.764v3.286h4.437v3.162H6.393v7.443c0 .598.173 1.04.517 1.326.345.285.801.428 1.368.428zm15.517 3.08l-.887-2.095h-.12c-.773.89-1.568 1.509-2.385 1.853-.818.345-1.883.517-3.197.517-1.615 0-2.887-.423-3.814-1.268-.928-.845-1.392-2.049-1.392-3.61 0-1.636.624-2.842 1.873-3.618 1.249-.776 3.132-1.206 5.65-1.289l2.918-.082v-.676c0-1.562-.872-2.342-2.618-2.342-1.344 0-2.923.372-4.739 1.116l-1.52-2.84C15.502 6.465 17.648 6 20.005 6c2.257 0 3.987.45 5.19 1.35C26.399 8.25 27 9.62 27 11.458v10.267h-3.205zm-1.354-7.14l-1.775.056c-1.334.037-2.327.257-2.979.661-.652.405-.978 1.02-.978 1.847 0 1.185.742 1.778 2.227 1.778 1.063 0 1.913-.28 2.55-.84.637-.561.955-1.305.955-2.233v-1.268zm15.496-8.764c1.896 0 3.381.719 4.454 2.157C43.464 9.416 44 11.386 44 13.89c0 2.577-.553 4.574-1.66 5.988C41.235 21.293 39.729 22 37.823 22c-1.887 0-3.367-.665-4.44-1.996h-.302l-.732 1.717H29V0h4.382v5.053c0 .642-.057 1.67-.172 3.085h.172c1.025-1.545 2.543-2.317 4.555-2.317zm-1.408 3.406c-1.083 0-1.873.324-2.371.97-.498.647-.757 1.715-.776 3.204v.46c0 1.676.256 2.876.769 3.602.512.726 1.324 1.089 2.435 1.089.9 0 1.617-.402 2.148-1.207.532-.805.798-1.976.798-3.511 0-1.536-.269-2.687-.805-3.455-.536-.768-1.27-1.152-2.198-1.152zM53.359 22c-2.621 0-4.67-.686-6.145-2.057C45.738 18.572 45 16.63 45 14.117c0-2.586.682-4.585 2.046-5.998C48.41 6.706 50.296 6 52.704 6c2.3 0 4.092.621 5.374 1.864C59.359 9.106 60 10.823 60 13.013v2.043H49.5c.049 1.197.422 2.13 1.121 2.802.7.672 1.68 1.008 2.942 1.008.98 0 1.908-.096 2.782-.29a14.43 14.43 0 0 0 2.738-.925v3.258c-.777.369-1.607.642-2.49.822-.884.18-1.962.269-3.234.269zm-.626-13.004c-.942 0-1.68.283-2.214.849-.534.566-.84 1.369-.917 2.409h6.233c-.02-1.04-.306-1.843-.86-2.41-.553-.565-1.3-.848-2.242-.848zM77 13.979c0 2.513-.708 4.478-2.125 5.895-1.417 1.417-3.39 2.126-5.92 2.126-1.584 0-2.98-.324-4.191-.973a6.674 6.674 0 0 1-2.79-2.796C61.324 17.016 61 15.6 61 13.98c0-2.521.704-4.482 2.11-5.88C64.519 6.698 66.497 6 69.045 6c1.585 0 2.982.322 4.192.966a6.652 6.652 0 0 1 2.79 2.775c.65 1.206.974 2.618.974 4.238zm-11.41 0c0 1.528.269 2.683.805 3.465.536.783 1.41 1.174 2.62 1.174 1.2 0 2.064-.39 2.59-1.167.527-.777.79-1.935.79-3.472 0-1.527-.266-2.673-.797-3.437-.532-.764-1.402-1.146-2.613-1.146-1.2 0-2.066.38-2.598 1.139-.53.76-.797 1.907-.797 3.444z"/>
</svg>
